<?xml version="1.0" encoding="utf-8"?>
<!-- Generator: Adobe Illustrator 23.0.0, SVG Export Plug-In . SVG Version: 6.00 Build 0)  -->
<svg version="1.1" id="Capa_1" xmlns="http://www.w3.org/2000/svg" xmlns:xlink="http://www.w3.org/1999/xlink" x="0px" y="0px"
	 viewBox="0 0 512 512" style="enable-background:new 0 0 512 512;" xml:space="preserve">
<style type="text/css">
	.st0{fill:#4CAF50;}
	.st1{fill:#FBC315;}
</style>
<g>
	<path class="st0" d="M391.3,512C326.5,512,274,459.5,274,394.7s52.5-117.3,117.3-117.3c49.8,1.1,93.1,34.7,106.3,82.8
		c1.4,5.7-2.1,11.5-7.8,12.9s-11.5-2.1-12.9-7.8l0,0c-11.1-38.4-45.7-65.2-85.6-66.6c-53,0-96,43-96,96s43,96,96,96
		c5.9,0,10.7,4.8,10.7,10.7C402,507.2,397.2,512,391.3,512z"/>
	<path class="st0" d="M498,384h-64c-5.9,0-10.7-4.8-10.7-10.7s4.8-10.7,10.7-10.7h53.3v-53.3c0-5.9,4.8-10.7,10.7-10.7
		s10.7,4.8,10.7,10.7v64C508.7,379.2,503.9,384,498,384z"/>
</g>
<path class="st1" d="M431.4,82.3c-5.5-9.7-17.3-14-27.7-10l-52.9,21.3c-9.9-7.1-20.4-13.3-31.5-18.3l-8-56.2
	c-1.5-11-10.9-19.3-22.1-19.2h-93.9c-11.1-0.1-20.5,8-22.1,19l-8.1,56.3c-11.1,5.1-21.6,11.2-31.5,18.3l-53-21.3
	c-10.3-4.1-22,0.1-27.4,9.8L6.4,163.2c-5.6,9.6-3.3,21.9,5.5,28.8l44.8,35c-1.4,12.1-1.4,24.4,0,36.6l-44.8,35.1
	c-8.6,6.9-10.9,19.1-5.4,28.7l46.8,81.1c5.5,9.7,17.3,13.9,27.7,9.9l52.9-21.3c9.9,7.1,20.5,13.3,31.6,18.3l8,56.1
	c1.5,11,10.9,19.3,22.1,19.2h73.3c5.9,0,10.7-4.8,10.7-10.7c0-2.2-0.7-4.3-1.9-6.1c-16.3-23.2-25-50.9-25-79.2
	c0-13.4,2-26.7,5.8-39.5c1-3.3,0.3-6.9-1.9-9.6c-2.1-2.8-5.5-4.3-8.9-4c-1.2,0-2.3,0.2-5.2,0.6c-53.1,0.1-96.3-42.9-96.5-96
	s42.9-96.3,96-96.5s96.3,42.9,96.5,96c0,0.7,0,1.3,0,2c-0.2,1.1-0.3,2.3-0.4,3.5c-0.3,5.9,4.2,10.9,10.1,11.2
	c1.2,0.1,2.4-0.1,3.6-0.4c20.9-6.4,43-7.6,64.4-3.5c3,0.3,6.1-0.6,8.4-2.6c2.4-2,4-4.9,4.3-8.1c0-0.3,0.1-2.1,0.1-2.4
	c0-6.1-0.4-12.2-1-18.3l44.9-35c8.6-6.9,11-19.1,5.4-28.7L431.4,82.3z"/>
<path d="M268.8,490.7h-73.4c-11.1,0.1-20.6-8.2-22.1-19.2l-8-56.1c-11.1-5-21.7-11.2-31.5-18.3l-52.9,21.3c-10.4,4-22.2-0.2-27.7-10
	l-46.7-81c-5.5-9.6-3.2-21.8,5.4-28.8l44.8-35.1c-1.4-12.1-1.4-24.4,0-36.6l-44.8-35c-8.7-6.9-11.1-19.2-5.5-28.8l46.9-81.1
	c5.4-9.7,17.1-13.9,27.4-9.8l53,21.3c9.9-7.1,20.4-13.2,31.5-18.3l8.1-56.3c1.6-11,11-19.1,22.1-19h93.9
	c11.1-0.1,20.6,8.2,22.1,19.2l8,56.1c11.1,5,21.7,11.2,31.5,18.3l52.9-21.3c10.4-4,22.2,0.2,27.7,10l46.8,81
	c5.5,9.6,3.2,21.9-5.5,28.8l-44.8,35.1c0.7,6.1,1,12.2,1,18.3c0,0.3,0,2.1-0.1,2.4c-0.3,3.2-1.8,6.1-4.3,8.1c-2.3,2-5.4,2.9-8.4,2.6
	c-21.4-4.1-43.5-2.9-64.4,3.5c-5.6,1.7-11.6-1.5-13.3-7.2c-0.3-1.2-0.5-2.4-0.4-3.6c0-1.2,0.2-2.3,0.4-3.5
	c0.9-53.1-41.4-96.8-94.5-97.8s-96.8,41.4-97.8,94.5s41.4,96.8,94.5,97.8c0.6,0,1.2,0,1.8,0c2.9-0.4,4-0.5,5.2-0.6
	c5.9-0.3,10.9,4.2,11.2,10.1c0.1,1.2-0.1,2.4-0.4,3.6c-12.1,40.4-5,84.2,19.2,118.7c3.3,4.8,2.1,11.5-2.7,14.8
	C273.1,490,271,490.7,268.8,490.7z M135.3,374.3c2.3,0,4.6,0.7,6.4,2.1c11.4,8.9,24,16.1,37.3,21.7c3.5,1.4,6,4.6,6.5,8.4l8.9,62.2
	l55.4,0.5c-17.2-32.5-22.6-70-15.3-106c-64.8-4.4-113.7-60.5-109.3-125.2s60.5-113.7,125.2-109.3c58.6,4,105.3,50.7,109.3,109.3
	c15.6-3.2,31.6-4,47.5-2.3c-0.3-3.6-0.6-7.5-1.2-11.9c-0.5-3.7,1.1-7.4,4-9.7l49.5-38.7l-46.8-82.5l-59.5,22.9
	c-3.5,1.4-7.5,0.9-10.5-1.4c-11.4-8.8-23.9-16.1-37.2-21.6c-3.5-1.4-6-4.6-6.5-8.4L290.1,22l-94.8-0.7l-9.8,62.9
	c-0.5,3.7-3,6.9-6.5,8.4c-13.3,5.6-25.9,12.9-37.4,21.7c-3,2.2-6.9,2.8-10.4,1.4L72.9,92.1l-48.1,81.8l49.7,40c3,2.3,4.5,6,4,9.7
	c-1,7.2-1.5,14.4-1.6,21.7c0.1,7.3,0.6,14.5,1.6,21.7c0.5,3.7-1.1,7.4-4,9.7L25,315.5l46.8,82.5l59.5-22.8
	C132.5,374.6,133.9,374.3,135.3,374.3z"/>
<path d="M391.3,512C326.5,512,274,459.5,274,394.7s52.5-117.3,117.3-117.3c49.8,1.1,93.1,34.7,106.3,82.7c1.4,5.7-2,11.5-7.8,12.9
	s-11.5-2-12.9-7.8l0,0c-11.1-38.4-45.7-65.2-85.6-66.6c-53,0-96,43-96,96s43,96,96,96c5.9,0,10.7,4.8,10.7,10.7
	C402,507.2,397.2,512,391.3,512z"/>
<path d="M498,384h-64c-5.9,0-10.7-4.8-10.7-10.7s4.8-10.7,10.7-10.7h53.3v-53.3c0-5.9,4.8-10.7,10.7-10.7s10.7,4.8,10.7,10.7v64
	C508.7,379.2,503.9,384,498,384z"/>
</svg>
